<?xml version="1.0" encoding="UTF-8"?>
<svg id="Layer_2" data-name="Layer 2" xmlns="http://www.w3.org/2000/svg" viewBox="0 0 103.2 127.74">
  <defs>
    <style>
      .cls-1 {
        fill: #078944;
      }

      .cls-1, .cls-2, .cls-3 {
        stroke-width: 0px;
      }

      .cls-2 {
        fill: #422713;
      }

      .cls-3 {
        fill: #93c005;
      }
    </style>
  </defs>
  <g id="DESIGN_LAYERS_-_Make_more_if_needed" data-name="DESIGN LAYERS - Make more if needed">
    <g>
      <path class="cls-1" d="M53.61,52.55c-1.34-13.39-1.84-21.37,11.15-37.95,1.75-2.73,4.4-5.97,3.73-14.6,9.84,12.67,15.35,33.65-14.87,52.55Z"/>
      <path class="cls-2" d="M44.25,9.64s-11.61,2.81-12.59,3.83c.6,1.03,18.07,15.61,19.17,38.33,1.1,22.72,3.56,0,3.56,0,0,0-3.56-31.49-10.13-42.16Z"/>
      <path class="cls-3" d="M54.39,49.78c-10.98-7.67-43.58-17.26-53.08,15.88-7.32,38.88,17.08,69.54,48.81,60.23,12.81,1.68,50.64,13.69,53.08-55.03,0-29.99-35.08-39.7-48.81-21.08Z"/>
    </g>
  </g>
</svg>