<?xml version="1.0" encoding="UTF-8"?>
<svg id="Layer_2" data-name="Layer 2" xmlns="http://www.w3.org/2000/svg" viewBox="0 0 269.6 218.65">
  <defs>
    <style>
      .cls-1 {
        fill: #f6a8a5;
      }

      .cls-1, .cls-2, .cls-3, .cls-4, .cls-5 {
        stroke-width: 0px;
      }

      .cls-2 {
        fill: #4d4c4d;
      }

      .cls-6 {
        fill: none;
        stroke: #575757;
        stroke-linecap: round;
        stroke-linejoin: round;
        stroke-width: 2.41px;
      }

      .cls-3 {
        fill: #265600;
      }

      .cls-4 {
        fill: #ddd;
      }

      .cls-5 {
        fill: #fff;
      }
    </style>
  </defs>
  <g id="DESIGN_LAYERS_-_Make_more_if_needed" data-name="DESIGN LAYERS - Make more if needed">
    <g>
      <polygon class="cls-4" points="182.47 45.69 131.06 57.61 67.09 51.65 64.29 27.65 107.95 23.24 143.6 25.1 173.96 32.07 182.47 45.69"/>
      <path class="cls-5" d="M256.9,166.48s-12.87-4.83-22.52-16.89c8.85-7.24,12.06-8.04,18.5-14.48-16.09-10.46-18.5-9.65-23.32-20.91,10.46-9.65,10.46-7.24,16.89-12.87-8.85-5.63-8.85-6.43-15.28-14.48,3.22-16.89,4.02-45.84,1.61-75.6-13.47,3.14-30.56,4.81-53.71,18.43-13.42.9-37.7-7.69-40.09-3.4,20.46-.47,32.15,13.65,32.65,14.27.56.69,1.26,2.51.57,3.07-.3.24-1.46,1.16-1.82,1.16-.47,0-.93-.2-1.25-.59-.12-.14-11.85-15.24-31.69-14.01-4.23-.46-27.48-1.86-39.73.92-1.44.19-13.68,2.13-23.03,13.11-.58.68-1.59-.04-2.27-.62-.68-.58-.76-2.4-.18-3.07,10.77-12.66,24.71-14.15,25.29-14.25.67-.11,6.94-1.87,16.31.78l-5.89-3.83-9.44-.87-13.72,1.76S42.97.8,30.1,0c0,0-20.91,68.36,0,91.68-4.65,5.63-16.09,10.46-16.09,10.46,0,0,7.24,12.06,16.09,16.89-8.04,10.46-14.48,11.26-16.09,14.48,8.04,6.43,3.22,4.02,16.09,10.46-8.04,11.26-8.04,12.06-16.09,17.69,1.2,4.11,0,16.09,16.09,24.93l6.43,28.95h207.5l-.8-32.17,13.67-16.89Z"/>
      <path class="cls-1" d="M140.69,149.77l-1.98-5.66,5.12-8.28s.3.35,0,0,0,0,0,0l6.58-4.76,3.8,2.05-5.9,9.85-5.27,4.36-2.19,1.97-.17.47"/>
      <path class="cls-3" d="M175.4,80.96c-15.47,5.09-22.76,15.35-16.92,30.89,5.84,15.54,27.63,3.71,27.63,3.71l1.85-1.5,2.41-3.58,4.32-10.43,2.3-17.21-21.59-1.86Z"/>
      <g>
        <path class="cls-3" d="M100.91,110.27s-2.72,11.73-8.13,12.4c-14.5-1.57-29.98-7.64-26.19-23.61,3.79-15.96,20.13-18.32,26.19-11.13"/>
        <path class="cls-3" d="M92.79,124.4c-.06,0-.12,0-.19-.01-8.62-.93-20.02-3.65-25.4-11.27-2.84-4.02-3.61-8.88-2.29-14.45,1.95-8.2,7.43-14.13,14.68-15.85,5.64-1.34,11.33.23,14.51,4.01.61.73.52,1.82-.21,2.43-.73.61-1.82.52-2.43-.21-2.35-2.79-6.69-3.91-11.07-2.87-5.95,1.42-10.48,6.38-12.12,13.29-1.08,4.56,1.11,8.49,3.36,11.66,4.83,6.84,14.6,9.07,21.11,9.8,3.13-.64,6.79-6.67,7.7-10.17.24-.92-1.67-3.8-.75-3.56.92.24,1.88,6.06,1.64,6.98-.35,1.35-1.95,9.41-8.34,10.2-.07,0-.14.01-.21.01Z"/>
      </g>
      <path class="cls-2" d="M101.33,114.19c-3.27-8.06-5.19-17.01-10.39-23.82-1.01-1.25-2.53-2.33-3.88-3.51-.74-.65-.98-1.15-2.02-1.56-5.21-1.85-11.21-1.52-16.77-2-5.96-.44-12.2-.63-17.87-2.78,6.02.15,11.87-.67,17.86-1.01,6.25-.24,12.63-.91,18.72,1.37,1.09.42,2.38,1.43,3.3,2.45,0,0,.77.68.77.68,3.79,2.87,6.29,7.64,7.56,12.2,1.72,5.94,2.54,11.93,2.72,17.98h0Z"/>
      <path class="cls-2" d="M90.7,125.44c-8.97.37-24.06,2.21-30.51-5.41-1.01-1.23-1.7-2.93-2.07-4.4-1.82-5.65-2.35-11.88-2.2-17.81.04-5.94.29-11.85.75-17.77.89,8.8.85,17.72,1.84,26.46.35,2.86,1.1,5.61,1.94,8.46.36,1.4.76,2.5,1.61,3.6,5.53,6.61,20.38,5.71,28.65,6.86h0Z"/>
      <path class="cls-2" d="M143.6,115.83c-1.29-12.65,3.82-31.47,16.94-36.48,5.7-1.35,11.65-1.17,17.45-1.09,6.51.23,13,.86,19.44,2.13,1.2.22,2.01,1.32,1.91,2.51-.98,13.9-4.21,30.43-17.3,38.05-4.16,2.51-8.87,3.77-13.53,4.2,4.44-1.27,8.75-3.09,12.38-5.9,11.29-8.55,12.94-23.49,13.74-36.72,0,0,1.91,2.51,1.91,2.51-6.15-1.09-12.46-1.71-18.75-2.02-5.05-.22-10.16-.34-15.17.21-.55.11-1.32.24-1.83.49-11.06,5.06-16.1,20.66-17.19,32.13h0Z"/>
      <path class="cls-5" d="M27.46,178.12c-2.43.12-4.82.64-7.11,1.48,1.51,2.5,5.93,2.08,5.93,6.09,0-4-4.42-3.59-5.93-6.09-14.01,5.13-24.3,22.56-15.48,37.45h53.8c4.52-27.02-13.96-39.75-31.21-38.93Z"/>
      <path class="cls-4" d="M53.17,186.87c-6.19-6.96-15.82-10.83-25.79-10.36-2.54.12-5.07.66-7.5,1.54.12,1.39.82,2.2,1.73,2.8,1.94-.64,3.93-1.03,5.93-1.12,9-.44,17.68,3.04,23.23,9.29,6.04,6.8,8.22,16.4,6.32,27.77-.15.88.44,1.71,1.32,1.85.09.01.18.02.27.02.77,0,1.45-.56,1.58-1.34,2.61-15.62-2.41-25.18-7.09-30.44Z"/>
      <path class="cls-5" d="M19.88,178.05c-6.79,2.45-12.88,7.64-16.55,14.45-4.5,8.36-4.45,17.6.16,25.37.45.76,1.44,1.02,2.2.56.76-.45,1.02-1.44.56-2.2-4.01-6.77-4.05-14.87-.09-22.21,3.41-6.33,9.13-11.1,15.44-13.17-.91-.6-1.61-1.41-1.73-2.8Z"/>
      <path class="cls-5" d="M242.14,176.51c2.43.12,4.82.64,7.11,1.48-1.51,2.5-5.93,2.08-5.93,6.09,0-4,4.42-3.59,5.93-6.09,14.01,5.13,24.3,22.56,15.48,37.45h-53.8c-4.52-27.02,13.96-39.75,31.21-38.93Z"/>
      <path class="cls-4" d="M216.43,185.26c6.19-6.96,15.82-10.83,25.79-10.36,2.54.12,5.07.66,7.5,1.54-.12,1.39-.82,2.2-1.73,2.8-1.94-.64-3.93-1.03-5.93-1.12-9-.44-17.68,3.04-23.23,9.29-6.04,6.8-8.22,16.4-6.32,27.77.15.88-.44,1.71-1.32,1.85-.09.01-.18.02-.27.02-.77,0-1.45-.56-1.58-1.34-2.61-15.62,2.41-25.18,7.09-30.44Z"/>
      <path class="cls-5" d="M249.72,176.44c6.79,2.45,12.88,7.64,16.55,14.45,4.5,8.36,4.45,17.6-.16,25.37-.45.76-1.44,1.02-2.2.56-.76-.45-1.02-1.44-.56-2.2,4.01-6.77,4.05-14.87.09-22.21-3.41-6.33-9.13-11.1-15.44-13.17.91-.6,1.61-1.41,1.73-2.8Z"/>
      <path class="cls-6" d="M104.47,143.29c2.05,7.19,7.39,11.91,15.4-2.67,6.57,6.78,16.22,20.33,30.8-.82,10.88-16.63-13.76-4.23-10.88,5.69.59,3.71,1.57,3.24,1.57,3.24"/>
    </g>
  </g>
</svg>