<?xml version="1.0" encoding="UTF-8"?>
<svg id="Layer_2" data-name="Layer 2" xmlns="http://www.w3.org/2000/svg" viewBox="0 0 111.83 120.57">
  <defs>
    <style>
      .cls-1 {
        fill: #8b00ad;
      }

      .cls-1, .cls-2, .cls-3 {
        stroke-width: 0px;
      }

      .cls-2 {
        fill: #422713;
      }

      .cls-3 {
        fill: #63a80a;
      }
    </style>
  </defs>
  <g id="DESIGN_LAYERS_-_Make_more_if_needed" data-name="DESIGN LAYERS - Make more if needed">
    <g>
      <path class="cls-3" d="M63.33,62.13c22.32-22.96,17.1-33.54,15.72-38.77-10.74,4.27-14.37-2.52-26.19-20.22-6.6,11.28-.05,16.33-27.95-3.14,1.4,6.27,10.12,18.45,8.05,24.14-11.26,3-25.69-1.59.68,16.16,28.01,12.88,29.69,21.82,29.69,21.82Z"/>
      <path class="cls-2" d="M68.01,55.4c14-15.37,35.4-22.62,35.4-22.62l8.42,16.77s-35.34.59-39.34,14.29c-4,13.7-4.48-8.44-4.48-8.44Z"/>
      <ellipse class="cls-1" cx="55.33" cy="60.13" rx="15.81" ry="19.14" transform="translate(-14.84 101.99) rotate(-78.19)"/>
      <ellipse class="cls-1" cx="72" cy="73.93" rx="15.81" ry="19.14" transform="translate(-15.09 129.29) rotate(-78.19)"/>
      <ellipse class="cls-1" cx="67.5" cy="95.5" rx="15.81" ry="19.14" transform="translate(-39.79 142.03) rotate(-78.19)"/>
      <ellipse class="cls-1" cx="34.36" cy="52.93" rx="15.81" ry="19.14" transform="translate(-24.48 75.73) rotate(-78.19)"/>
      <ellipse class="cls-1" cx="24.66" cy="64.03" rx="15.81" ry="19.14" transform="translate(-43.07 75.07) rotate(-78.19)"/>
      <ellipse class="cls-1" cx="20.71" cy="82.91" rx="15.81" ry="19.14" transform="translate(-64.69 86.22) rotate(-78.19)"/>
      <ellipse class="cls-1" cx="19.02" cy="104.6" rx="15.81" ry="19.14" transform="translate(-87.26 101.82) rotate(-78.19)"/>
      <ellipse class="cls-1" cx="44" cy="100.37" rx="15.81" ry="19.14" transform="translate(-63.25 122.91) rotate(-78.19)"/>
      <ellipse class="cls-1" cx="48.28" cy="79.89" rx="15.81" ry="19.14" transform="translate(-39.8 110.81) rotate(-78.19)"/>
    </g>
  </g>
</svg>