<?xml version="1.0" encoding="UTF-8"?>
<svg id="Layer_2" data-name="Layer 2" xmlns="http://www.w3.org/2000/svg" viewBox="0 0 102.55 113.9">
  <defs>
    <style>
      .cls-1 {
        fill: #078944;
      }

      .cls-1, .cls-2, .cls-3 {
        stroke-width: 0px;
      }

      .cls-2 {
        fill: #422713;
      }

      .cls-3 {
        fill: #ff7f6e;
      }
    </style>
  </defs>
  <g id="DESIGN_LAYERS_-_Make_more_if_needed" data-name="DESIGN LAYERS - Make more if needed">
    <g>
      <path class="cls-2" d="M45.89,0s-8.66,2.71-9.4,3.7c.45.99,13.49,15.07,14.3,37.02.82,21.95,2.66,0,2.66,0,0,0-2.66-30.41-7.56-40.73Z"/>
      <path class="cls-1" d="M51.28,38.65c.3-9.21.65-14.67,9.58-24.58,1.25-1.67,3.06-3.6,3.36-9.52,4.73,9.59,6.25,24.36-12.94,34.1Z"/>
      <path class="cls-1" d="M52.71,37.22c-4.61-7.98-7.49-12.63-20.05-17.16-1.89-.89-4.39-1.73-7.45-6.81.35,10.68,5.98,24.43,27.5,23.96Z"/>
      <path class="cls-3" d="M50.75,36.67C44.34,19.32,3.3,24.35.03,56.2c-1.1,39.03,24.99,49.38,50.71,57.7,26.54-9.7,51.8-14.02,51.8-48.63-1.36-31.95-34.04-51.87-51.8-28.6Z"/>
    </g>
  </g>
</svg>